<?xml version="1.0" encoding="UTF-8"?><svg id="Warstwa_1" xmlns="http://www.w3.org/2000/svg" viewBox="0 0 500 500"><defs><style>.cls-1{fill:#587980;}</style></defs><g><path class="cls-1" d="M83.35372,157.45022c1.66239-1.85694,3.42564-3.53954,5.29038-5.04594,1.86349-1.5064,3.84155-2.79813,5.93292-3.87892,2.09013-1.07892,4.30789-1.9072,6.6508-2.48481,2.34291-.577,4.8751-.86612,7.59594-.86612,4.1815,0,7.87238,.69054,11.07263,2.07099,3.19901,1.38107,5.86879,3.33976,8.01122,5.87421,2.14118,2.53631,3.76621,5.58633,4.8751,9.15069,1.10764,3.5656,1.66239,7.50656,1.66239,11.82411v48.57764h-13.52886v-48.57764c0-5.77308-1.32244-10.25443-3.96732-13.44343-2.6455-3.18776-6.6645-4.78226-12.05512-4.78226-3.98102,0-7.69742,.95422-11.14797,2.86203-3.45179,1.90844-6.63959,4.49376-9.56092,7.75721v56.18409h-13.52886v-76.29278h8.08718c1.91393,0,3.09877,.9294,3.55203,2.78634l1.05845,8.28457Z"/><path class="cls-1" d="M187.27545,145.17443c5.59235,0,10.63057,.9294,15.11591,2.78634,4.48409,1.85818,8.31381,4.49438,11.48792,7.90797,3.1741,3.41484,5.6048,7.5444,7.29334,12.38932,1.68792,4.84554,2.53219,10.25567,2.53219,16.22977,0,6.02498-.84427,11.44752-2.53219,16.26762-1.68854,4.8201-4.11924,8.93788-7.29334,12.35148-3.1741,3.41546-7.00383,6.03862-11.48792,7.87075-4.48534,1.83212-9.52356,2.7485-15.11591,2.7485-5.64403,0-10.72085-.91637-15.22923-2.7485-4.51024-1.83212-8.35179-4.45529-11.52652-7.87075-3.1741-3.41359-5.60543-7.53137-7.29334-12.35148-1.68854-4.8201-2.53156-10.24264-2.53156-16.26762,0-5.9741,.84302-11.38423,2.53156-16.22977,1.68792-4.84492,4.11924-8.97449,7.29334-12.38932,3.17473-3.41359,7.01628-6.04979,11.52652-7.90797,4.50837-1.85694,9.5852-2.78634,15.22923-2.78634Zm0,68.08328c7.55796,0,13.20012-2.52266,16.9296-7.5686,3.72823-5.04656,5.59297-12.08842,5.59297-21.12557,0-9.08741-1.86474-16.16711-5.59297-21.23849-3.72948-5.07076-9.37164-7.60707-16.9296-7.60707-3.82972,0-7.1682,.65331-10.01481,1.95807-2.84723,1.30662-5.21442,3.189-7.10407,5.649-1.88964,2.46062-3.30112,5.48582-4.23255,9.075-.9333,3.59042-1.3984,7.64429-1.3984,12.16349,0,9.03715,1.87657,16.07901,5.63095,21.12557,3.75314,5.04594,9.45881,7.5686,17.11887,7.5686Z"/></g><g><path class="cls-1" d="M284.27056,283.36003c1.25038-1.18769,2.62641-2.15482,4.12686-2.8976s3.26093-1.11544,5.28268-1.11544c1.75053,0,3.30323,.30294,4.65811,.90883,1.35488,.60462,2.48582,1.45387,3.39157,2.54776,.90699,1.09389,1.59501,2.39946,2.06405,3.91671,.46905,1.51852,.70295,3.1904,.70295,5.01693v20.79783h-7.72122v-20.79783c0-1.99511-.44914-3.54025-1.34493-4.63413s-2.26063-1.6402-4.09451-1.6402c-1.33498,0-2.58535,.30801-3.75237,.92404s-2.27183,1.45387-3.31318,2.51607v23.63206h-7.72122v-47.32876h7.72122v18.15374Z"/><path class="cls-1" d="M338.96608,279.85655l-17.47539,41.66031c-.23017,.55138-.52628,.97094-.89081,1.2574-.36454,.28773-.92192,.43096-1.67214,.43096h-5.75297l6.00305-13.12286-12.97404-30.22581h6.78313c.60466,0,1.07868,.14957,1.42331,.44617,.34339,.29787,.59844,.63757,.76516,1.0191l6.81548,16.9445c.22892,.57293,.42177,1.14713,.57853,1.72005,.15552,.57293,.30731,1.15727,.45287,1.75174,.18787-.59448,.37573-1.18388,.56236-1.76822,.18787-.58307,.39689-1.16234,.62581-1.73527l6.43974-16.91282c.16672-.42463,.44292-.77447,.82861-1.05079,.38569-.27506,.81741-.41449,1.29765-.41449h6.18967Z"/><path class="cls-1" d="M349.61977,284.31576c1.31383-1.50711,2.80308-2.72775,4.47025-3.66193s3.62671-1.4019,5.87739-1.4019c1.75177,0,3.35051,.37139,4.7987,1.11544,1.44944,.74278,2.69982,1.82019,3.75237,3.23223,1.05131,1.41204,1.86499,3.15365,2.43854,5.22354,.57231,2.0699,.85971,4.44274,.85971,7.11852,0,2.44129-.32348,4.70258-.9692,6.78389-.64696,2.0813-1.56888,3.88502-2.767,5.41367-1.19936,1.52992-2.64756,2.72395-4.34583,3.58334-1.69827,.86066-3.60058,1.29036-5.70569,1.29036-1.79158,0-3.32438-.28139-4.59466-.84418-1.27153-.56279-2.40744-1.34233-3.40774-2.34115v13.37764h-7.72122v-43.34868h4.72032c1.0003,0,1.65597,.47786,1.9695,1.43359l.62457,3.02562Zm.40684,19.74704c.87464,1.08248,1.82891,1.84808,2.86031,2.29298,1.0314,.44617,2.15239,.66926,3.36046,.66926,1.16702,0,2.21957-.22309,3.15766-.66926,.93809-.44491,1.7356-1.12431,2.39126-2.03821,.65691-.91263,1.16204-2.06483,1.51662-3.45532s.53125-3.03069,.53125-4.9206c0-1.91145-.15179-3.53011-.45287-4.85722-.30233-1.32712-.7353-2.40453-1.29765-3.2335-.56236-.82771-1.2454-1.43232-2.04788-1.81512-.80248-.38153-1.71444-.57293-2.73465-.57293-1.6062,0-2.97104,.34477-4.09576,1.03558-1.12596,.68954-2.18847,1.66048-3.18877,2.91408v14.65025Z"/><path class="cls-1" d="M383.22065,297.18385c.12442,1.67696,.41679,3.12576,.87464,4.34767,.45909,1.22064,1.06375,2.22834,1.81398,3.02562,.75023,.79602,1.64104,1.39049,2.67244,1.78343s2.17229,.58941,3.42267,.58941c1.25162,0,2.32906-.1483,3.23605-.44617s1.69827-.62617,2.37634-.98742c.67682-.36125,1.27028-.68954,1.78163-.98742,.5101-.2966,1.00528-.44617,1.48552-.44617,.64572,0,1.12472,.24464,1.437,.73264l2.21957,2.86718c-.85473,1.0191-1.81273,1.87343-2.87524,2.56297-1.06375,.69081-2.17354,1.24219-3.32936,1.65668-1.15706,.41449-2.33528,.70602-3.5334,.87587s-2.36016,.25478-3.48488,.25478c-2.23077,0-4.30477-.37773-6.22202-1.13065-1.91724-.75419-3.58441-1.86836-5.0015-3.34378-1.41709-1.47669-2.53185-3.30195-3.34553-5.47832-.81243-2.17637-1.21927-4.69878-1.21927-7.56469,0-2.22961,.35458-4.32612,1.06375-6.29081,.70792-1.96342,1.7244-3.67334,3.04818-5.12721,1.32254-1.45387,2.93869-2.60607,4.84474-3.45532,1.90729-.84925,4.05968-1.27515,6.45592-1.27515,2.02175,0,3.88674,.32956,5.59621,.98742,1.70822,.65912,3.17757,1.61992,4.40804,2.88239,1.22922,1.26374,2.19344,2.81394,2.89142,4.65061s1.04758,3.93318,1.04758,6.29081c0,1.18895-.12566,1.99004-.37573,2.40453-.25008,.41322-.72907,.6211-1.43824,.6211h-19.85048Zm14.72457-4.74568c0-1.0191-.14059-1.9799-.42301-2.88239-.28118-.90249-.70295-1.69344-1.26531-2.37284-.5636-.6794-1.27775-1.21557-2.14119-1.60851-.86593-.39294-1.87121-.58941-3.01707-.58941-2.23077,0-3.98627,.64771-5.26775,1.94314s-2.10013,3.1321-2.45472,5.51001h14.56905Z"/><path class="cls-1" d="M417.3391,285.52626c1.0003-1.95328,2.18847-3.48701,3.5645-4.60245,1.37479-1.11417,3.0009-1.67189,4.87584-1.67189,1.48054,0,2.66871,.32956,3.5645,.98742l-.50015,5.8928c-.10451,.38153-.25505,.65278-.45287,.81123-.19906,.15971-.46407,.23957-.7975,.23957-.31228,0-.77635-.05324-1.39096-.15971-.61586-.10647-1.21429-.15971-1.7978-.15971-.85473,0-1.61491,.12802-2.28178,.3828-.66811,.25478-1.26655,.6211-1.7978,1.09896s-1.0003,1.05586-1.40714,1.73527c-.40684,.68067-.78631,1.45514-1.14089,2.32594v20.12857h-7.72122v-32.67851h4.53245c.79128,0,1.34369,.1445,1.65721,.43096,.31228,.28646,.52006,.80109,.62457,1.54387l.46905,3.69489Z"/><path class="cls-1" d="M284.27056,360.30999c1.29143-1.38035,2.7247-2.47931,4.29855-3.29688s3.37041-1.22698,5.39217-1.22698c1.85503,0,3.52718,.37266,5.01768,1.11544s2.76202,1.81005,3.81458,3.20054c1.05131,1.39176,1.86001,3.07379,2.42237,5.04862,.56236,1.97483,.84478,4.19303,.84478,6.65586,0,2.6555-.32348,5.0651-.9692,7.23006-.64696,2.16623-1.56888,4.01938-2.767,5.55817-1.19936,1.54006-2.64134,2.73409-4.32966,3.58334s-3.5645,1.27388-5.62731,1.27388c-1.0003,0-1.90729-.1014-2.71972-.30294s-1.5639-.48293-2.25068-.84418c-.68802-.35998-1.3188-.80109-1.89236-1.32078-.57231-.52096-1.11974-1.09896-1.64104-1.73653l-.34339,2.19792c-.12566,.55265-.33965,.94432-.64074,1.17881-.30233,.23323-.71414,.34984-1.23545,.34984h-5.09481v-47.32876h7.72122v18.66456Zm0,20.19195c.87464,1.08248,1.82891,1.84808,2.86031,2.29298,1.0314,.44617,2.12004,.66926,3.26715,.66926,1.18817,0,2.25565-.21802,3.2037-.65278s1.7555-1.11544,2.42361-2.03821c.66687-.92404,1.17697-2.10285,1.53155-3.53518,.35458-1.43359,.53125-3.14857,.53125-5.14369,0-3.58841-.58351-6.18434-1.75053-7.78778s-2.84538-2.40453-5.0326-2.40453c-1.48054,0-2.77322,.34477-3.87679,1.03558-1.10481,.68954-2.15736,1.66048-3.15766,2.91408v14.65025Z"/><path class="cls-1" d="M326.22345,355.78613c2.37634,0,4.53868,.39421,6.48702,1.17881,1.94835,.78588,3.61551,1.90131,5.00275,3.34504,1.38474,1.44373,2.45347,3.20561,3.2037,5.28692s1.12596,4.40598,1.12596,6.97402c0,2.59086-.37573,4.92694-1.12596,7.00697-.75023,2.0813-1.81895,3.8546-3.2037,5.31987-1.38723,1.46528-3.0544,2.59086-5.00275,3.37547-1.94835,.78588-4.11069,1.17881-6.48702,1.17881-2.39624,0-4.57476-.39294-6.53306-1.17881-1.95954-.78461-3.63169-1.91019-5.01768-3.37547s-2.45969-3.23857-3.21987-5.31987c-.76142-2.08004-1.14089-4.41612-1.14089-7.00697,0-2.56804,.37947-4.89271,1.14089-6.97402,.76018-2.0813,1.83388-3.84319,3.21987-5.28692s3.05813-2.55917,5.01768-3.34504c1.9583-.78461,4.13681-1.17881,6.53306-1.17881Zm0,27.61468c2.66747,0,4.64318-.91263,5.92466-2.73916s1.92222-4.50104,1.92222-8.02608-.64074-6.21096-1.92222-8.05777c-1.28148-1.84808-3.2572-2.77211-5.92466-2.77211-2.70977,0-4.71535,.93038-6.01798,2.78733-1.30263,1.85822-1.95332,4.53907-1.95332,8.04256s.65069,6.17293,1.95332,8.0096,3.30821,2.75564,6.01798,2.75564Z"/><path class="cls-1" d="M355.7659,341.64543v47.32876h-7.72122v-47.32876h7.72122Z"/><path class="cls-1" d="M369.42671,373.62298c.12442,1.67696,.41679,3.12576,.87464,4.34767,.45909,1.22064,1.06375,2.22834,1.81398,3.02562,.75023,.79602,1.64104,1.39049,2.67244,1.78343s2.17229,.58941,3.42267,.58941c1.25162,0,2.32906-.1483,3.23605-.44617s1.69827-.62617,2.37634-.98742c.67682-.36125,1.27028-.68954,1.78163-.98742,.5101-.2966,1.00528-.44617,1.48552-.44617,.64572,0,1.12472,.24464,1.437,.73264l2.21957,2.86718c-.85473,1.0191-1.81273,1.87343-2.87524,2.56297-1.06375,.69081-2.17354,1.24219-3.32936,1.65668-1.15706,.41449-2.33528,.70602-3.5334,.87587s-2.36016,.25478-3.48488,.25478c-2.23077,0-4.30477-.37773-6.22202-1.13065-1.91724-.75419-3.58441-1.86836-5.0015-3.34378-1.41709-1.47669-2.53185-3.30195-3.34553-5.47832-.81243-2.17637-1.21927-4.69878-1.21927-7.56469,0-2.22961,.35458-4.32612,1.06375-6.29081,.70792-1.96342,1.7244-3.67334,3.04818-5.12721,1.32254-1.45387,2.93869-2.60607,4.84474-3.45532,1.90729-.84925,4.05968-1.27515,6.45592-1.27515,2.02175,0,3.88674,.32956,5.59621,.98742,1.70822,.65912,3.17757,1.61992,4.40804,2.88239,1.22922,1.26374,2.19344,2.81394,2.89142,4.65061s1.04758,3.93318,1.04758,6.29081c0,1.18895-.12566,1.99004-.37573,2.40453-.25008,.41322-.72907,.6211-1.43824,.6211h-19.85048Zm14.72457-4.74568c0-1.0191-.14059-1.9799-.42301-2.88239-.28118-.90249-.70295-1.69344-1.26531-2.37284-.5636-.6794-1.27775-1.21557-2.14119-1.60851-.86593-.39294-1.87121-.58941-3.01707-.58941-2.23077,0-3.98627,.64771-5.26775,1.94314s-2.10013,3.1321-2.45472,5.51001h14.56905Z"/></g></svg>