<?xml version="1.0" encoding="UTF-8"?><svg id="Layer_1" xmlns="http://www.w3.org/2000/svg" viewBox="0 0 1408.50342 1408.50391"><defs><style>.cls-1{fill:#76716a;}</style></defs><path class="cls-1" d="M703.979,1196.57812c-66.41309,0-130.84863-13.01074-191.51709-38.6709-58.58984-24.78223-111.20557-60.25488-156.38525-105.43457s-80.65283-97.7959-105.43408-156.38574c-25.66064-60.66797-38.67139-125.10352-38.67139-191.5166s13.01074-130.84863,38.67139-191.51709c24.78125-58.58984,60.25439-111.20557,105.43408-156.38525s97.79541-80.65283,156.38525-105.43408c60.66846-25.66064,125.104-38.67139,191.51709-38.67139s130.84863,13.01074,191.5166,38.67139c58.58984,24.78125,111.20605,60.25439,156.38574,105.43408s80.65234,97.79541,105.43457,156.38525c25.66016,60.66846,38.6709,125.104,38.6709,191.51709s-13.01074,130.84863-38.6709,191.5166c-24.78223,58.58984-60.25488,111.20605-105.43457,156.38574s-97.7959,80.65234-156.38574,105.43457c-60.66797,25.66016-125.10352,38.6709-191.5166,38.6709Zm0-950c-252.5376,0-457.99219,205.45459-457.99219,457.99219s205.45459,457.99219,457.99219,457.99219,457.99219-205.4541,457.99219-457.99219-205.4541-457.99219-457.99219-457.99219Z"/></svg>