<?xml version="1.0" encoding="UTF-8"?><svg id="Layer_1" xmlns="http://www.w3.org/2000/svg" viewBox="0 0 1408.50342 1408.50391"><defs><style>.cls-1{fill:#76716a;}</style></defs><path class="cls-1" d="M704.25195,1267.00781c-75.96582,0-149.6665-14.88086-219.0542-44.22949-67.01416-28.34473-127.1958-68.91895-178.87451-120.59766-51.67822-51.67871-92.25342-111.86035-120.59766-178.875-29.34863-69.3877-44.22949-143.08789-44.22949-219.05371s14.88086-149.66602,44.22949-219.05371c28.34424-67.01416,68.91943-127.19629,120.59766-178.87451s111.86035-92.25342,178.87451-120.59814c69.3877-29.34863,143.08838-44.22949,219.0542-44.22949s149.6665,14.88086,219.05322,44.22949c67.01465,28.34473,127.19629,68.91943,178.875,120.59814,51.67871,51.67822,92.25293,111.86035,120.59766,178.87451,29.34863,69.3877,44.22949,143.08789,44.22949,219.05371s-14.88086,149.66602-44.22949,219.05371c-28.34473,67.01465-68.91895,127.19629-120.59766,178.875s-111.86035,92.25293-178.875,120.59766c-69.38672,29.34863-143.08691,44.22949-219.05322,44.22949Zm0-1100c-296.2373,0-537.24414,241.00684-537.24414,537.24414s241.00684,537.24414,537.24414,537.24414,537.24365-241.00684,537.24365-537.24414S1000.48877,167.00781,704.25195,167.00781Z"/></svg>