<?xml version="1.0" encoding="UTF-8"?><svg id="Layer_1" xmlns="http://www.w3.org/2000/svg" viewBox="0 0 1408.50342 1408.50391"><defs><style>.cls-1{fill:#76716a;}</style></defs><path class="cls-1" d="M704.25195,1337.75586c-85.51904,0-168.48389-16.75098-246.59082-49.78711-75.43848-31.9082-143.18701-77.58496-201.36426-135.76172-58.17725-58.17773-103.854-125.92578-135.76172-201.36426-33.03613-78.10742-49.78711-161.07227-49.78711-246.59082s16.75098-168.48389,49.78711-246.59082c31.90771-75.43848,77.58447-143.18701,135.76172-201.36426,58.17725-58.17676,125.92578-103.854,201.36426-135.76123,78.10693-33.03662,161.07178-49.7876,246.59082-49.7876s168.48389,16.75098,246.59131,49.7876c75.4375,31.90723,143.18652,77.58447,201.36328,135.76123,58.17773,58.17725,103.85449,125.92578,135.76172,201.36426,33.03613,78.10693,49.78711,161.07227,49.78711,246.59082s-16.75098,168.4834-49.78711,246.59082c-31.90723,75.43848-77.58398,143.18652-135.76172,201.36426s-125.92578,103.85352-201.36328,135.76172c-78.10742,33.03613-161.07227,49.78711-246.59131,49.78711Zm0-1250c-339.93701,0-616.49609,276.55908-616.49609,616.49609s276.55908,616.49609,616.49609,616.49609,616.49561-276.55859,616.49561-616.49609S1044.18896,87.75586,704.25195,87.75586Z"/></svg>