<?xml version="1.0" encoding="UTF-8"?><svg id="Layer_1" xmlns="http://www.w3.org/2000/svg" viewBox="0 0 1408.50342 1408.50391"><defs><style>.cls-1{fill:#76716a;}</style></defs><path class="cls-1" d="M704.25195,1408.50391c-95.07178,0-187.30176-18.62109-274.12793-55.3457-83.86279-35.4707-159.17773-86.24902-223.85352-150.9248s-115.45459-139.99121-150.92529-223.85352C18.62109,891.55371,0,799.32324,0,704.25195s18.62109-187.30127,55.34521-274.12793c35.4707-83.8623,86.24951-159.17725,150.92529-223.85352,64.67578-64.67578,139.99072-115.45459,223.85352-150.92529C516.9502,18.62109,609.18018,0,704.25195,0s187.30127,18.62109,274.12744,55.34521c83.8623,35.4707,159.17773,86.24951,223.85352,150.92529,64.67578,64.67627,115.4541,139.99121,150.9248,223.85352,36.72461,86.82666,55.3457,179.05664,55.3457,274.12793s-18.62109,187.30176-55.3457,274.12793c-35.4707,83.8623-86.24902,159.17773-150.9248,223.85352s-139.99121,115.4541-223.85352,150.9248c-86.82617,36.72461-179.05566,55.3457-274.12744,55.3457Zm0-1400C320.61523,8.50391,8.50391,320.61523,8.50391,704.25195s312.11133,695.74805,695.74805,695.74805,695.74756-312.11133,695.74756-695.74805S1087.88818,8.50391,704.25195,8.50391Z"/></svg>